# xmcd
#
# Track frame offsets: 
#        150
#        16276
#        33538
#        50034
#        68832
#        86807
#        105176
#        122974
#        136940
#        155598
#        170756
#        185888
#        202510
#        219516
#        238055
#        255305
#        278037
#        295552
#
# Disc length: 4174 seconds
#
# Revision: 1
# Processed by: cddbd v1.5.2PL0 Copyright (c) Steve Scherf et al.
# Submitted via: ExactAudioCopy v1.0b3
#
DISCID=02104c12
DTITLE=Various Artist - Now That's What I Call Country Ballads 2
DYEAR=2014
DGENRE=Country
TTITLE0=Luke Bryan - Drunk On You
TTITLE1=Hunter Hayes - Wanted
TTITLE2=Lady Antebellum - Just a Kiss
TTITLE3=Miranda Lambert - Over You
TTITLE4=Taylor Swift - Ours
TTITLE5=Darius Rucker - True Believers
TTITLE6=Keith Urban - Without You
TTITLE7=Jake Owen - Don't Think I Can't Love You
TTITLE8=Kenny Chesney - Come Over
TTITLE9=Tim McGraw - Better Than I Used to Be
TTITLE10=Josh Turner - Time Is Love
TTITLE11=Eli Young Band - Even If It Breaks Your Heart
TTITLE12=Gary Allan - Every Storm (Runs Out of Rain)
TTITLE13=Scotty McCreery - I Love You This Big
TTITLE14=Love and Theft - If You Ever Get Lonely
TTITLE15=Sara Evans - A Little Bit Stronger
TTITLE16=The Band Perry - All Your Life
TTITLE17=Gloriana - (Kissed You) Good Night
EXTD=
EXTT0=
EXTT1=
EXTT2=
EXTT3=
EXTT4=
EXTT5=
EXTT6=
EXTT7=
EXTT8=
EXTT9=
EXTT10=
EXTT11=
EXTT12=
EXTT13=
EXTT14=
EXTT15=
EXTT16=
EXTT17=
PLAYORDER=
